<?xml version="1.0" standalone="no"?><!DOCTYPE svg PUBLIC "-//W3C//DTD SVG 1.1//EN" "http://www.w3.org/Graphics/SVG/1.1/DTD/svg11.dtd"><svg width="100%" height="100%" viewBox="0 0 100 100" version="1.1" xmlns="http://www.w3.org/2000/svg" xmlns:xlink="http://www.w3.org/1999/xlink" xml:space="preserve" style="fill-rule:evenodd;clip-rule:evenodd;stroke-linejoin:round;stroke-miterlimit:1.41421;"><g id="Layer1"><path d="M50.323,0.001l0.323,0.003l0.322,0.005l0.322,0.007l0.321,0.01l0.321,0.011l0.32,0.013l0.319,0.015l0.319,0.017l0.319,0.02l0.318,0.021l0.318,0.023l0.317,0.025l0.316,0.027l0.316,0.029l0.315,0.031l0.315,0.033l0.314,0.035l0.314,0.037l0.312,0.039l0.313,0.041l0.312,0.042l0.311,0.045l0.31,0.047l0.31,0.048l0.309,0.05l0.309,0.052l0.308,0.055l0.307,0.055l0.307,0.058l0.306,0.06l0.305,0.062l0.305,0.063l0.304,0.065l0.303,0.067l0.303,0.069l0.302,0.071l0.301,0.073l0.301,0.074l0.3,0.076l0.299,0.078l0.298,0.08l0.298,0.082l0.297,0.083l0.296,0.085l0.295,0.087l0.295,0.089l0.294,0.09l0.293,0.093l0.292,0.094l0.292,0.095l0.29,0.098l0.29,0.099l0.289,0.101l0.289,0.103l0.287,0.104l0.287,0.106l0.286,0.108l0.285,0.109l0.284,0.111l0.283,0.113l0.283,0.115l0.282,0.116l0.28,0.118l0.28,0.119l0.279,0.121l0.279,0.123l0.277,0.125l0.276,0.126l0.276,0.127l0.274,0.13l0.274,0.131l0.273,0.132l0.272,0.134l0.27,0.136l0.27,0.137l0.269,0.139l0.269,0.141l0.267,0.142l0.266,0.143l0.265,0.146l0.264,0.146l0.263,0.149l0.263,0.149l0.261,0.152l0.26,0.153l0.259,0.154l0.259,0.156l0.257,0.157l0.256,0.159l0.255,0.161l0.254,0.162l0.253,0.163l0.252,0.165l0.251,0.166l0.25,0.168l0.249,0.169l0.248,0.171l0.247,0.172l0.245,0.174l0.245,0.175l0.243,0.176l0.243,0.178l0.241,0.18l0.24,0.18l0.239,0.183l0.238,0.183l0.237,0.185l0.235,0.186l0.235,0.188l0.233,0.189l0.232,0.191l0.231,0.191l0.23,0.193l0.228,0.195l0.228,0.196l0.226,0.197l0.225,0.199l0.224,0.199l0.223,0.202l0.221,0.202l0.22,0.204l0.219,0.205l0.218,0.206l0.216,0.208l0.216,0.209l0.214,0.21l0.212,0.212l0.212,0.212l0.21,0.214l0.209,0.216l0.208,0.216l0.206,0.218l0.205,0.219l0.204,0.22l0.202,0.221l0.202,0.223l0.199,0.224l0.199,0.225l0.197,0.226l0.196,0.228l0.195,0.228l0.193,0.23l0.191,0.231l0.191,0.232l0.189,0.233l0.188,0.235l0.186,0.235l0.185,0.237l0.183,0.238l0.183,0.239l0.18,0.24l0.18,0.241l0.178,0.243l0.176,0.243l0.175,0.245l0.174,0.245l0.172,0.247l0.171,0.248l0.169,0.249l0.168,0.25l0.166,0.251l0.165,0.252l0.163,0.253l0.162,0.254l0.161,0.255l0.159,0.256l0.157,0.257l0.156,0.259l0.154,0.259l0.153,0.26l0.152,0.261l0.149,0.263l0.149,0.263l0.146,0.264l0.146,0.265l0.143,0.266l0.142,0.267l0.141,0.269l0.139,0.269l0.137,0.27l0.136,0.27l0.134,0.272l0.132,0.273l0.131,0.274l0.13,0.274l0.127,0.276l0.126,0.276l0.125,0.277l0.123,0.279l0.121,0.279l0.119,0.28l0.118,0.28l0.116,0.282l0.115,0.283l0.113,0.283l0.111,0.284l0.109,0.285l0.108,0.286l0.106,0.287l0.104,0.287l0.103,0.289l0.101,0.289l0.099,0.29l0.098,0.29l0.095,0.292l0.094,0.292l0.093,0.293l0.09,0.294l0.089,0.295l0.087,0.295l0.085,0.296l0.083,0.297l0.082,0.298l0.08,0.298l0.078,0.299l0.076,0.3l0.074,0.301l0.073,0.301l0.071,0.302l0.069,0.303l0.067,0.303l0.065,0.304l0.063,0.305l0.062,0.305l0.06,0.306l0.058,0.307l0.055,0.307l0.055,0.308l0.052,0.309l0.05,0.309l0.048,0.31l0.047,0.31l0.045,0.311l0.042,0.312l0.041,0.313l0.039,0.312l0.037,0.314l0.035,0.314l0.033,0.315l0.031,0.315l0.029,0.316l0.027,0.316l0.025,0.317l0.023,0.318l0.021,0.318l0.02,0.319l0.017,0.319l0.015,0.319l0.013,0.32l0.011,0.321l0.01,0.321l0.007,0.322l0.005,0.322l0.003,0.323l0.001,0.323l-0.001,0.323l-0.003,0.323l-0.005,0.322l-0.007,0.322l-0.01,0.321l-0.011,0.321l-0.013,0.32l-0.015,0.319l-0.017,0.319l-0.02,0.319l-0.021,0.318l-0.023,0.318l-0.025,0.317l-0.027,0.316l-0.029,0.316l-0.031,0.315l-0.033,0.315l-0.035,0.314l-0.037,0.314l-0.039,0.312l-0.041,0.313l-0.042,0.312l-0.045,0.311l-0.047,0.31l-0.048,0.31l-0.05,0.309l-0.052,0.309l-0.055,0.308l-0.055,0.307l-0.058,0.307l-0.06,0.306l-0.062,0.305l-0.063,0.305l-0.065,0.304l-0.067,0.303l-0.069,0.303l-0.071,0.302l-0.073,0.301l-0.074,0.301l-0.076,0.3l-0.078,0.299l-0.08,0.298l-0.082,0.298l-0.083,0.297l-0.085,0.296l-0.087,0.295l-0.089,0.295l-0.09,0.294l-0.093,0.293l-0.094,0.292l-0.095,0.292l-0.098,0.29l-0.099,0.29l-0.101,0.289l-0.103,0.289l-0.104,0.287l-0.106,0.287l-0.108,0.286l-0.109,0.285l-0.111,0.284l-0.113,0.283l-0.115,0.283l-0.116,0.282l-0.118,0.28l-0.119,0.28l-0.121,0.279l-0.123,0.279l-0.125,0.277l-0.126,0.276l-0.127,0.276l-0.13,0.274l-0.131,0.274l-0.132,0.273l-0.134,0.272l-0.136,0.27l-0.137,0.27l-0.139,0.269l-0.141,0.269l-0.142,0.267l-0.143,0.266l-0.146,0.265l-0.146,0.264l-0.149,0.263l-0.149,0.263l-0.152,0.261l-0.153,0.26l-0.154,0.259l-0.156,0.259l-0.157,0.257l-0.159,0.256l-0.161,0.255l-0.162,0.254l-0.163,0.253l-0.165,0.252l-0.166,0.251l-0.168,0.25l-0.169,0.249l-0.171,0.248l-0.172,0.247l-0.174,0.245l-0.175,0.245l-0.176,0.243l-0.178,0.243l-0.18,0.241l-0.18,0.24l-0.183,0.239l-0.183,0.238l-0.185,0.237l-0.186,0.235l-0.188,0.235l-0.189,0.233l-0.191,0.232l-0.191,0.231l-0.193,0.23l-0.195,0.228l-0.196,0.228l-0.197,0.226l-0.199,0.225l-0.199,0.224l-0.202,0.223l-0.202,0.221l-0.204,0.22l-0.205,0.219l-0.206,0.218l-0.208,0.216l-0.209,0.216l-0.21,0.214l-0.212,0.212l-0.212,0.212l-0.214,0.21l-0.216,0.209l-0.216,0.208l-0.218,0.206l-0.219,0.205l-0.22,0.204l-0.221,0.202l-0.223,0.202l-0.224,0.199l-0.225,0.199l-0.226,0.197l-0.228,0.196l-0.228,0.195l-0.23,0.193l-0.231,0.191l-0.232,0.191l-0.233,0.189l-0.235,0.188l-0.235,0.186l-0.237,0.185l-0.238,0.183l-0.239,0.183l-0.24,0.18l-0.241,0.18l-0.243,0.178l-0.243,0.176l-0.245,0.175l-0.245,0.174l-0.247,0.172l-0.248,0.171l-0.249,0.169l-0.25,0.168l-0.251,0.166l-0.252,0.165l-0.253,0.163l-0.254,0.162l-0.255,0.161l-0.256,0.159l-0.257,0.157l-0.259,0.156l-0.259,0.154l-0.26,0.153l-0.261,0.152l-0.263,0.149l-0.263,0.149l-0.264,0.146l-0.265,0.146l-0.266,0.143l-0.267,0.142l-0.269,0.141l-0.269,0.139l-0.27,0.137l-0.27,0.136l-0.272,0.134l-0.273,0.132l-0.274,0.131l-0.274,0.13l-0.276,0.127l-0.276,0.126l-0.277,0.125l-0.279,0.123l-0.279,0.121l-0.28,0.119l-0.28,0.118l-0.282,0.116l-0.283,0.115l-0.283,0.113l-0.284,0.111l-0.285,0.109l-0.286,0.108l-0.287,0.106l-0.287,0.104l-0.289,0.103l-0.289,0.101l-0.29,0.099l-0.29,0.098l-0.292,0.095l-0.292,0.094l-0.293,0.093l-0.294,0.09l-0.295,0.089l-0.295,0.087l-0.296,0.085l-0.297,0.083l-0.298,0.082l-0.298,0.08l-0.299,0.078l-0.3,0.076l-0.301,0.074l-0.301,0.073l-0.302,0.071l-0.303,0.069l-0.303,0.067l-0.304,0.065l-0.305,0.063l-0.305,0.062l-0.306,0.06l-0.307,0.058l-0.307,0.055l-0.308,0.055l-0.309,0.052l-0.309,0.05l-0.31,0.048l-0.31,0.047l-0.311,0.045l-0.312,0.042l-0.313,0.041l-0.312,0.039l-0.314,0.037l-0.314,0.035l-0.315,0.033l-0.315,0.031l-0.316,0.029l-0.316,0.027l-0.317,0.025l-0.318,0.023l-0.318,0.021l-0.319,0.02l-0.319,0.017l-0.319,0.015l-0.32,0.013l-0.321,0.011l-0.321,0.01l-0.322,0.007l-0.322,0.005l-0.323,0.003l-0.323,0.001l-0.323,-0.001l-0.323,-0.003l-0.322,-0.005l-0.322,-0.007l-0.321,-0.01l-0.321,-0.011l-0.32,-0.013l-0.319,-0.015l-0.319,-0.017l-0.319,-0.02l-0.318,-0.021l-0.318,-0.023l-0.317,-0.025l-0.316,-0.027l-0.316,-0.029l-0.315,-0.031l-0.315,-0.033l-0.314,-0.035l-0.314,-0.037l-0.312,-0.039l-0.313,-0.041l-0.312,-0.042l-0.311,-0.045l-0.31,-0.047l-0.31,-0.048l-0.309,-0.05l-0.309,-0.052l-0.308,-0.055l-0.307,-0.055l-0.307,-0.058l-0.306,-0.06l-0.305,-0.062l-0.305,-0.063l-0.304,-0.065l-0.303,-0.067l-0.303,-0.069l-0.302,-0.071l-0.301,-0.073l-0.301,-0.074l-0.3,-0.076l-0.299,-0.078l-0.298,-0.08l-0.298,-0.082l-0.297,-0.083l-0.296,-0.085l-0.295,-0.087l-0.295,-0.089l-0.294,-0.09l-0.293,-0.093l-0.292,-0.094l-0.292,-0.095l-0.29,-0.098l-0.29,-0.099l-0.289,-0.101l-0.289,-0.103l-0.287,-0.104l-0.287,-0.106l-0.286,-0.108l-0.285,-0.109l-0.284,-0.111l-0.283,-0.113l-0.283,-0.115l-0.282,-0.116l-0.28,-0.118l-0.28,-0.119l-0.279,-0.121l-0.279,-0.123l-0.277,-0.125l-0.276,-0.126l-0.276,-0.127l-0.274,-0.13l-0.274,-0.131l-0.273,-0.132l-0.272,-0.134l-0.27,-0.136l-0.27,-0.137l-0.269,-0.139l-0.269,-0.141l-0.267,-0.142l-0.266,-0.143l-0.265,-0.146l-0.264,-0.146l-0.263,-0.149l-0.263,-0.149l-0.261,-0.152l-0.26,-0.153l-0.259,-0.154l-0.259,-0.156l-0.257,-0.157l-0.256,-0.159l-0.255,-0.161l-0.254,-0.162l-0.253,-0.163l-0.252,-0.165l-0.251,-0.166l-0.25,-0.168l-0.249,-0.169l-0.248,-0.171l-0.247,-0.172l-0.245,-0.174l-0.245,-0.175l-0.243,-0.176l-0.243,-0.178l-0.241,-0.18l-0.24,-0.18l-0.239,-0.183l-0.238,-0.183l-0.237,-0.185l-0.235,-0.186l-0.235,-0.188l-0.233,-0.189l-0.232,-0.191l-0.231,-0.191l-0.23,-0.193l-0.228,-0.195l-0.228,-0.196l-0.226,-0.197l-0.225,-0.199l-0.224,-0.199l-0.223,-0.202l-0.221,-0.202l-0.22,-0.204l-0.219,-0.205l-0.218,-0.206l-0.216,-0.208l-0.216,-0.209l-0.214,-0.21l-0.212,-0.212l-0.212,-0.212l-0.21,-0.214l-0.209,-0.216l-0.208,-0.216l-0.206,-0.218l-0.205,-0.219l-0.204,-0.22l-0.202,-0.221l-0.202,-0.223l-0.199,-0.224l-0.199,-0.225l-0.197,-0.226l-0.196,-0.228l-0.195,-0.228l-0.193,-0.23l-0.191,-0.231l-0.191,-0.232l-0.189,-0.233l-0.188,-0.235l-0.186,-0.235l-0.185,-0.237l-0.183,-0.238l-0.183,-0.239l-0.18,-0.24l-0.18,-0.241l-0.178,-0.243l-0.176,-0.243l-0.175,-0.245l-0.174,-0.245l-0.172,-0.247l-0.171,-0.248l-0.169,-0.249l-0.168,-0.25l-0.166,-0.251l-0.165,-0.252l-0.163,-0.253l-0.162,-0.254l-0.161,-0.255l-0.159,-0.256l-0.157,-0.257l-0.156,-0.259l-0.154,-0.259l-0.153,-0.26l-0.152,-0.261l-0.149,-0.263l-0.149,-0.263l-0.146,-0.264l-0.146,-0.265l-0.143,-0.266l-0.142,-0.267l-0.141,-0.269l-0.139,-0.269l-0.137,-0.27l-0.136,-0.27l-0.134,-0.272l-0.132,-0.273l-0.131,-0.274l-0.13,-0.274l-0.127,-0.276l-0.126,-0.276l-0.125,-0.277l-0.123,-0.279l-0.121,-0.279l-0.119,-0.28l-0.118,-0.28l-0.116,-0.282l-0.115,-0.283l-0.113,-0.283l-0.111,-0.284l-0.109,-0.285l-0.108,-0.286l-0.106,-0.287l-0.104,-0.287l-0.103,-0.289l-0.101,-0.289l-0.099,-0.29l-0.098,-0.29l-0.095,-0.292l-0.094,-0.292l-0.093,-0.293l-0.09,-0.294l-0.089,-0.295l-0.087,-0.295l-0.085,-0.296l-0.083,-0.297l-0.082,-0.298l-0.08,-0.298l-0.078,-0.299l-0.076,-0.3l-0.074,-0.301l-0.073,-0.301l-0.071,-0.302l-0.069,-0.303l-0.067,-0.303l-0.065,-0.304l-0.063,-0.305l-0.062,-0.305l-0.06,-0.306l-0.058,-0.307l-0.055,-0.307l-0.055,-0.308l-0.052,-0.309l-0.05,-0.309l-0.048,-0.31l-0.047,-0.31l-0.045,-0.311l-0.042,-0.312l-0.041,-0.313l-0.039,-0.312l-0.037,-0.314l-0.035,-0.314l-0.033,-0.315l-0.031,-0.315l-0.029,-0.316l-0.027,-0.316l-0.025,-0.317l-0.023,-0.318l-0.021,-0.318l-0.02,-0.319l-0.017,-0.319l-0.015,-0.319l-0.013,-0.32l-0.011,-0.321l-0.01,-0.321l-0.007,-0.322l-0.005,-0.322l-0.003,-0.323l-0.001,-0.323l0.001,-0.323l0.003,-0.323l0.005,-0.322l0.007,-0.322l0.01,-0.321l0.011,-0.321l0.013,-0.32l0.015,-0.319l0.017,-0.319l0.02,-0.319l0.021,-0.318l0.023,-0.318l0.025,-0.317l0.027,-0.316l0.029,-0.316l0.031,-0.315l0.033,-0.315l0.035,-0.314l0.037,-0.314l0.039,-0.312l0.041,-0.313l0.042,-0.312l0.045,-0.311l0.047,-0.31l0.048,-0.31l0.05,-0.309l0.052,-0.309l0.055,-0.308l0.055,-0.307l0.058,-0.307l0.06,-0.306l0.062,-0.305l0.063,-0.305l0.065,-0.304l0.067,-0.303l0.069,-0.303l0.071,-0.302l0.073,-0.301l0.074,-0.301l0.076,-0.3l0.078,-0.299l0.08,-0.298l0.082,-0.298l0.083,-0.297l0.085,-0.296l0.087,-0.295l0.089,-0.295l0.09,-0.294l0.093,-0.293l0.094,-0.292l0.095,-0.292l0.098,-0.29l0.099,-0.29l0.101,-0.289l0.103,-0.289l0.104,-0.287l0.106,-0.287l0.108,-0.286l0.109,-0.285l0.111,-0.284l0.113,-0.283l0.115,-0.283l0.116,-0.282l0.118,-0.28l0.119,-0.28l0.121,-0.279l0.123,-0.279l0.125,-0.277l0.126,-0.276l0.127,-0.276l0.13,-0.274l0.131,-0.274l0.132,-0.273l0.134,-0.272l0.136,-0.27l0.137,-0.27l0.139,-0.269l0.141,-0.269l0.142,-0.267l0.143,-0.266l0.146,-0.265l0.146,-0.264l0.149,-0.263l0.149,-0.263l0.152,-0.261l0.153,-0.26l0.154,-0.259l0.156,-0.259l0.157,-0.257l0.159,-0.256l0.161,-0.255l0.162,-0.254l0.163,-0.253l0.165,-0.252l0.166,-0.251l0.168,-0.25l0.169,-0.249l0.171,-0.248l0.172,-0.247l0.174,-0.245l0.175,-0.245l0.176,-0.243l0.178,-0.243l0.18,-0.241l0.18,-0.24l0.183,-0.239l0.183,-0.238l0.185,-0.237l0.186,-0.235l0.188,-0.235l0.189,-0.233l0.191,-0.232l0.191,-0.231l0.193,-0.23l0.195,-0.228l0.196,-0.228l0.197,-0.226l0.199,-0.225l0.199,-0.224l0.202,-0.223l0.202,-0.221l0.204,-0.22l0.205,-0.219l0.206,-0.218l0.208,-0.216l0.209,-0.216l0.21,-0.214l0.212,-0.212l0.212,-0.212l0.214,-0.21l0.216,-0.209l0.216,-0.208l0.218,-0.206l0.219,-0.205l0.22,-0.204l0.221,-0.202l0.223,-0.202l0.224,-0.199l0.225,-0.199l0.226,-0.197l0.228,-0.196l0.228,-0.195l0.23,-0.193l0.231,-0.191l0.232,-0.191l0.233,-0.189l0.235,-0.188l0.235,-0.186l0.237,-0.185l0.238,-0.183l0.239,-0.183l0.24,-0.18l0.241,-0.18l0.243,-0.178l0.243,-0.176l0.245,-0.175l0.245,-0.174l0.247,-0.172l0.248,-0.171l0.249,-0.169l0.25,-0.168l0.251,-0.166l0.252,-0.165l0.253,-0.163l0.254,-0.162l0.255,-0.161l0.256,-0.159l0.257,-0.157l0.259,-0.156l0.259,-0.154l0.26,-0.153l0.261,-0.152l0.263,-0.149l0.263,-0.149l0.264,-0.146l0.265,-0.146l0.266,-0.143l0.267,-0.142l0.269,-0.141l0.269,-0.139l0.27,-0.137l0.27,-0.136l0.272,-0.134l0.273,-0.132l0.274,-0.131l0.274,-0.13l0.276,-0.127l0.276,-0.126l0.277,-0.125l0.279,-0.123l0.279,-0.121l0.28,-0.119l0.28,-0.118l0.282,-0.116l0.283,-0.115l0.283,-0.113l0.284,-0.111l0.285,-0.109l0.286,-0.108l0.287,-0.106l0.287,-0.104l0.289,-0.103l0.289,-0.101l0.29,-0.099l0.29,-0.098l0.292,-0.095l0.292,-0.094l0.293,-0.093l0.294,-0.09l0.295,-0.089l0.295,-0.087l0.296,-0.085l0.297,-0.083l0.298,-0.082l0.298,-0.08l0.299,-0.078l0.3,-0.076l0.301,-0.074l0.301,-0.073l0.302,-0.071l0.303,-0.069l0.303,-0.067l0.304,-0.065l0.305,-0.063l0.305,-0.062l0.306,-0.06l0.307,-0.058l0.307,-0.055l0.308,-0.055l0.309,-0.052l0.309,-0.05l0.31,-0.048l0.31,-0.047l0.311,-0.045l0.312,-0.042l0.313,-0.041l0.312,-0.039l0.314,-0.037l0.314,-0.035l0.315,-0.033l0.315,-0.031l0.316,-0.029l0.316,-0.027l0.317,-0.025l0.318,-0.023l0.318,-0.021l0.319,-0.02l0.319,-0.017l0.319,-0.015l0.32,-0.013l0.321,-0.011l0.321,-0.01l0.322,-0.007l0.322,-0.005l0.323,-0.003l0.323,-0.001l0.323,0.001ZM49.74,10.001l-0.259,0.002l-0.259,0.004l-0.258,0.006l-0.258,0.008l-0.257,0.009l-0.257,0.01l-0.256,0.012l-0.256,0.014l-0.256,0.016l-0.255,0.016l-0.254,0.019l-0.254,0.02l-0.253,0.022l-0.253,0.023l-0.253,0.025l-0.251,0.027l-0.252,0.027l-0.251,0.03l-0.25,0.031l-0.25,0.033l-0.249,0.034l-0.249,0.035l-0.248,0.038l-0.248,0.038l-0.247,0.041l-0.247,0.041l-0.246,0.043l-0.245,0.045l-0.245,0.046l-0.245,0.048l-0.244,0.049l-0.243,0.051l-0.243,0.052l-0.242,0.054l-0.242,0.055l-0.241,0.056l-0.24,0.058l-0.24,0.059l-0.24,0.061l-0.238,0.063l-0.239,0.063l-0.237,0.065l-0.237,0.067l-0.237,0.068l-0.235,0.069l-0.236,0.071l-0.234,0.073l-0.234,0.073l-0.234,0.075l-0.232,0.077l-0.232,0.077l-0.232,0.08l-0.231,0.08l-0.23,0.082l-0.23,0.084l-0.228,0.084l-0.229,0.086l-0.227,0.088l-0.227,0.088l-0.227,0.091l-0.225,0.091l-0.225,0.093l-0.225,0.094l-0.223,0.095l-0.223,0.097l-0.222,0.098l-0.222,0.1l-0.221,0.1l-0.22,0.102l-0.219,0.104l-0.219,0.104l-0.218,0.106l-0.217,0.108l-0.217,0.108l-0.216,0.11l-0.215,0.111l-0.214,0.112l-0.214,0.114l-0.212,0.115l-0.212,0.116l-0.212,0.117l-0.21,0.119l-0.21,0.119l-0.209,0.122l-0.208,0.122l-0.208,0.123l-0.206,0.125l-0.206,0.126l-0.205,0.127l-0.204,0.129l-0.204,0.129l-0.202,0.131l-0.202,0.132l-0.201,0.133l-0.2,0.134l-0.199,0.136l-0.199,0.137l-0.197,0.138l-0.197,0.139l-0.196,0.14l-0.195,0.141l-0.194,0.143l-0.193,0.143l-0.192,0.145l-0.192,0.146l-0.19,0.147l-0.19,0.148l-0.188,0.149l-0.188,0.151l-0.187,0.151l-0.186,0.153l-0.185,0.153l-0.184,0.155l-0.184,0.156l-0.182,0.157l-0.181,0.158l-0.18,0.159l-0.18,0.16l-0.178,0.161l-0.178,0.163l-0.176,0.163l-0.176,0.164l-0.174,0.166l-0.174,0.166l-0.172,0.168l-0.172,0.168l-0.17,0.17l-0.17,0.17l-0.168,0.172l-0.168,0.172l-0.166,0.174l-0.166,0.174l-0.164,0.176l-0.163,0.176l-0.163,0.178l-0.161,0.178l-0.16,0.18l-0.159,0.18l-0.158,0.181l-0.157,0.182l-0.156,0.184l-0.155,0.184l-0.153,0.185l-0.153,0.186l-0.151,0.187l-0.151,0.188l-0.149,0.188l-0.148,0.19l-0.147,0.19l-0.146,0.192l-0.145,0.192l-0.143,0.193l-0.143,0.194l-0.141,0.195l-0.14,0.196l-0.139,0.197l-0.138,0.197l-0.137,0.199l-0.136,0.199l-0.134,0.2l-0.133,0.201l-0.132,0.202l-0.131,0.202l-0.129,0.204l-0.129,0.204l-0.127,0.205l-0.126,0.206l-0.125,0.206l-0.123,0.208l-0.122,0.208l-0.122,0.209l-0.119,0.21l-0.119,0.21l-0.117,0.212l-0.116,0.212l-0.115,0.212l-0.114,0.214l-0.112,0.214l-0.111,0.215l-0.11,0.216l-0.108,0.217l-0.108,0.217l-0.106,0.218l-0.104,0.219l-0.104,0.219l-0.102,0.22l-0.1,0.221l-0.1,0.222l-0.098,0.222l-0.097,0.223l-0.095,0.223l-0.094,0.225l-0.093,0.225l-0.091,0.225l-0.091,0.227l-0.088,0.227l-0.088,0.227l-0.086,0.229l-0.084,0.228l-0.084,0.23l-0.082,0.23l-0.08,0.231l-0.08,0.232l-0.077,0.232l-0.077,0.232l-0.075,0.234l-0.073,0.234l-0.073,0.234l-0.071,0.236l-0.069,0.235l-0.068,0.237l-0.067,0.237l-0.065,0.237l-0.063,0.239l-0.063,0.238l-0.061,0.24l-0.059,0.24l-0.058,0.24l-0.056,0.241l-0.055,0.242l-0.054,0.242l-0.052,0.243l-0.051,0.243l-0.049,0.244l-0.048,0.245l-0.046,0.245l-0.045,0.245l-0.043,0.246l-0.041,0.247l-0.041,0.247l-0.038,0.248l-0.038,0.248l-0.035,0.249l-0.034,0.249l-0.033,0.25l-0.031,0.25l-0.03,0.251l-0.027,0.252l-0.027,0.251l-0.025,0.253l-0.023,0.253l-0.022,0.253l-0.02,0.254l-0.019,0.254l-0.016,0.255l-0.016,0.256l-0.014,0.256l-0.012,0.256l-0.01,0.257l-0.009,0.257l-0.008,0.258l-0.006,0.258l-0.004,0.259l-0.002,0.259l-0.001,0.26l0.001,0.26l0.002,0.259l0.004,0.259l0.006,0.258l0.008,0.258l0.009,0.257l0.01,0.257l0.012,0.256l0.014,0.256l0.016,0.256l0.016,0.255l0.019,0.254l0.02,0.254l0.022,0.253l0.023,0.253l0.025,0.253l0.027,0.251l0.027,0.252l0.03,0.251l0.031,0.25l0.033,0.25l0.034,0.249l0.035,0.249l0.038,0.248l0.038,0.248l0.041,0.247l0.041,0.247l0.043,0.246l0.045,0.245l0.046,0.245l0.048,0.245l0.049,0.244l0.051,0.243l0.052,0.243l0.054,0.242l0.055,0.242l0.056,0.241l0.058,0.24l0.059,0.24l0.061,0.24l0.063,0.238l0.063,0.239l0.065,0.237l0.067,0.237l0.068,0.237l0.069,0.235l0.071,0.236l0.073,0.234l0.073,0.234l0.075,0.234l0.077,0.232l0.077,0.232l0.08,0.232l0.08,0.231l0.082,0.23l0.084,0.23l0.084,0.228l0.086,0.229l0.088,0.227l0.088,0.227l0.091,0.227l0.091,0.225l0.093,0.225l0.094,0.225l0.095,0.223l0.097,0.223l0.098,0.222l0.1,0.222l0.1,0.221l0.102,0.22l0.104,0.219l0.104,0.219l0.106,0.218l0.108,0.217l0.108,0.217l0.11,0.216l0.111,0.215l0.112,0.214l0.114,0.213l0.115,0.213l0.116,0.212l0.117,0.212l0.119,0.21l0.119,0.21l0.121,0.209l0.123,0.208l0.123,0.208l0.125,0.206l0.126,0.206l0.127,0.205l0.129,0.204l0.129,0.204l0.131,0.202l0.132,0.202l0.133,0.201l0.134,0.2l0.136,0.199l0.137,0.199l0.138,0.197l0.139,0.197l0.14,0.196l0.141,0.195l0.143,0.194l0.143,0.193l0.145,0.192l0.146,0.192l0.147,0.19l0.148,0.19l0.149,0.188l0.151,0.188l0.151,0.187l0.153,0.186l0.153,0.185l0.155,0.184l0.156,0.184l0.157,0.182l0.158,0.181l0.159,0.18l0.16,0.18l0.161,0.178l0.163,0.178l0.163,0.176l0.164,0.176l0.166,0.174l0.166,0.174l0.168,0.172l0.168,0.172l0.17,0.17l0.17,0.17l0.172,0.168l0.172,0.168l0.174,0.166l0.174,0.166l0.176,0.164l0.176,0.163l0.178,0.163l0.178,0.161l0.18,0.16l0.18,0.159l0.181,0.158l0.182,0.157l0.184,0.156l0.184,0.155l0.185,0.153l0.186,0.153l0.187,0.151l0.187,0.151l0.189,0.149l0.19,0.148l0.19,0.147l0.192,0.146l0.192,0.145l0.193,0.143l0.194,0.143l0.195,0.141l0.196,0.141l0.197,0.139l0.197,0.137l0.199,0.137l0.199,0.136l0.2,0.134l0.201,0.133l0.202,0.132l0.202,0.131l0.204,0.129l0.204,0.129l0.205,0.127l0.206,0.126l0.206,0.125l0.208,0.123l0.208,0.122l0.209,0.122l0.21,0.119l0.21,0.119l0.212,0.117l0.212,0.116l0.212,0.115l0.214,0.114l0.214,0.112l0.215,0.111l0.216,0.11l0.217,0.108l0.217,0.108l0.218,0.106l0.219,0.104l0.219,0.104l0.22,0.102l0.221,0.1l0.222,0.1l0.222,0.098l0.223,0.097l0.223,0.095l0.225,0.094l0.225,0.093l0.225,0.091l0.227,0.091l0.227,0.088l0.227,0.088l0.228,0.086l0.23,0.084l0.229,0.084l0.23,0.082l0.231,0.08l0.232,0.079l0.232,0.078l0.232,0.077l0.234,0.075l0.234,0.073l0.234,0.073l0.236,0.071l0.235,0.069l0.237,0.068l0.237,0.066l0.237,0.066l0.239,0.063l0.239,0.063l0.239,0.061l0.24,0.059l0.24,0.058l0.241,0.056l0.242,0.055l0.242,0.054l0.243,0.052l0.243,0.051l0.244,0.049l0.245,0.048l0.245,0.046l0.245,0.045l0.246,0.043l0.247,0.042l0.247,0.04l0.248,0.038l0.248,0.038l0.249,0.035l0.249,0.034l0.25,0.033l0.25,0.031l0.251,0.03l0.252,0.027l0.252,0.027l0.252,0.025l0.253,0.023l0.253,0.022l0.254,0.02l0.254,0.019l0.255,0.017l0.256,0.015l0.256,0.014l0.256,0.012l0.257,0.01l0.257,0.009l0.258,0.008l0.258,0.006l0.259,0.004l0.259,0.002l0.26,0.001l0.26,-0.001l0.259,-0.002l0.259,-0.004l0.258,-0.006l0.258,-0.008l0.257,-0.009l0.257,-0.01l0.256,-0.012l0.256,-0.014l0.256,-0.015l0.255,-0.017l0.254,-0.019l0.254,-0.02l0.253,-0.022l0.253,-0.023l0.252,-0.025l0.252,-0.027l0.252,-0.027l0.251,-0.03l0.25,-0.031l0.25,-0.033l0.249,-0.034l0.249,-0.035l0.248,-0.038l0.248,-0.038l0.247,-0.04l0.247,-0.042l0.246,-0.043l0.245,-0.045l0.245,-0.046l0.245,-0.048l0.244,-0.049l0.243,-0.051l0.243,-0.052l0.242,-0.054l0.242,-0.055l0.241,-0.056l0.24,-0.058l0.24,-0.059l0.239,-0.061l0.239,-0.063l0.239,-0.063l0.237,-0.066l0.237,-0.066l0.237,-0.068l0.235,-0.069l0.236,-0.071l0.234,-0.073l0.234,-0.073l0.234,-0.075l0.232,-0.077l0.232,-0.078l0.232,-0.079l0.231,-0.08l0.23,-0.082l0.229,-0.084l0.23,-0.084l0.228,-0.086l0.227,-0.088l0.227,-0.088l0.227,-0.091l0.225,-0.091l0.225,-0.093l0.225,-0.094l0.223,-0.095l0.223,-0.097l0.222,-0.098l0.222,-0.1l0.221,-0.1l0.22,-0.102l0.219,-0.104l0.219,-0.104l0.218,-0.106l0.217,-0.108l0.217,-0.108l0.216,-0.11l0.215,-0.111l0.214,-0.112l0.214,-0.114l0.212,-0.115l0.212,-0.116l0.212,-0.117l0.21,-0.119l0.21,-0.119l0.209,-0.122l0.208,-0.122l0.208,-0.123l0.206,-0.125l0.206,-0.126l0.205,-0.127l0.204,-0.129l0.204,-0.129l0.202,-0.131l0.202,-0.132l0.201,-0.133l0.2,-0.134l0.199,-0.136l0.199,-0.137l0.197,-0.137l0.197,-0.139l0.196,-0.141l0.195,-0.141l0.194,-0.143l0.193,-0.143l0.192,-0.145l0.192,-0.146l0.19,-0.147l0.19,-0.148l0.188,-0.149l0.188,-0.151l0.187,-0.151l0.186,-0.153l0.185,-0.153l0.184,-0.155l0.184,-0.156l0.182,-0.157l0.181,-0.158l0.18,-0.159l0.18,-0.16l0.178,-0.161l0.178,-0.163l0.176,-0.163l0.176,-0.164l0.174,-0.166l0.174,-0.166l0.172,-0.168l0.172,-0.168l0.17,-0.17l0.17,-0.17l0.168,-0.172l0.168,-0.172l0.166,-0.174l0.166,-0.174l0.164,-0.176l0.163,-0.176l0.163,-0.178l0.161,-0.178l0.16,-0.18l0.159,-0.18l0.158,-0.181l0.157,-0.182l0.156,-0.184l0.155,-0.184l0.153,-0.185l0.153,-0.186l0.151,-0.187l0.151,-0.188l0.149,-0.188l0.148,-0.19l0.147,-0.19l0.146,-0.192l0.145,-0.192l0.143,-0.193l0.143,-0.194l0.141,-0.195l0.141,-0.196l0.139,-0.197l0.137,-0.197l0.137,-0.199l0.136,-0.199l0.134,-0.2l0.133,-0.201l0.132,-0.202l0.131,-0.202l0.129,-0.204l0.129,-0.204l0.127,-0.205l0.126,-0.206l0.125,-0.206l0.123,-0.208l0.122,-0.208l0.122,-0.209l0.119,-0.21l0.119,-0.21l0.117,-0.212l0.116,-0.212l0.115,-0.212l0.114,-0.214l0.112,-0.214l0.111,-0.215l0.11,-0.216l0.108,-0.217l0.108,-0.217l0.106,-0.218l0.104,-0.219l0.104,-0.219l0.102,-0.22l0.1,-0.221l0.1,-0.222l0.098,-0.222l0.097,-0.223l0.095,-0.223l0.094,-0.225l0.093,-0.225l0.091,-0.225l0.091,-0.227l0.088,-0.227l0.088,-0.227l0.086,-0.228l0.084,-0.23l0.084,-0.229l0.082,-0.23l0.08,-0.231l0.079,-0.232l0.078,-0.232l0.077,-0.232l0.075,-0.234l0.073,-0.234l0.073,-0.234l0.071,-0.236l0.069,-0.235l0.068,-0.237l0.066,-0.237l0.066,-0.237l0.063,-0.239l0.063,-0.239l0.061,-0.239l0.059,-0.24l0.058,-0.24l0.056,-0.241l0.055,-0.242l0.054,-0.242l0.052,-0.243l0.051,-0.243l0.049,-0.244l0.048,-0.245l0.046,-0.245l0.045,-0.245l0.043,-0.246l0.042,-0.247l0.04,-0.247l0.038,-0.248l0.038,-0.248l0.035,-0.249l0.034,-0.249l0.033,-0.25l0.031,-0.25l0.03,-0.251l0.027,-0.252l0.027,-0.252l0.025,-0.252l0.023,-0.253l0.022,-0.253l0.02,-0.254l0.019,-0.254l0.017,-0.255l0.015,-0.256l0.014,-0.256l0.012,-0.256l0.01,-0.257l0.009,-0.257l0.008,-0.258l0.006,-0.258l0.004,-0.259l0.002,-0.259l0.001,-0.26l-0.001,-0.26l-0.002,-0.259l-0.004,-0.259l-0.006,-0.258l-0.008,-0.258l-0.009,-0.257l-0.01,-0.257l-0.012,-0.256l-0.014,-0.256l-0.015,-0.256l-0.017,-0.255l-0.019,-0.254l-0.02,-0.254l-0.022,-0.253l-0.023,-0.253l-0.025,-0.252l-0.027,-0.252l-0.027,-0.252l-0.03,-0.251l-0.031,-0.25l-0.033,-0.25l-0.034,-0.249l-0.035,-0.249l-0.038,-0.248l-0.038,-0.248l-0.04,-0.247l-0.042,-0.247l-0.043,-0.246l-0.045,-0.245l-0.046,-0.245l-0.048,-0.245l-0.049,-0.244l-0.051,-0.243l-0.052,-0.243l-0.054,-0.242l-0.055,-0.242l-0.056,-0.241l-0.058,-0.24l-0.059,-0.24l-0.061,-0.239l-0.063,-0.239l-0.063,-0.239l-0.066,-0.237l-0.066,-0.237l-0.068,-0.237l-0.069,-0.235l-0.071,-0.236l-0.073,-0.234l-0.073,-0.234l-0.075,-0.234l-0.077,-0.232l-0.078,-0.232l-0.079,-0.232l-0.08,-0.231l-0.082,-0.23l-0.084,-0.229l-0.084,-0.23l-0.086,-0.228l-0.088,-0.227l-0.088,-0.227l-0.091,-0.227l-0.091,-0.225l-0.093,-0.225l-0.094,-0.225l-0.095,-0.223l-0.097,-0.223l-0.098,-0.222l-0.1,-0.222l-0.1,-0.221l-0.102,-0.22l-0.104,-0.219l-0.104,-0.219l-0.106,-0.218l-0.108,-0.217l-0.108,-0.217l-0.11,-0.216l-0.111,-0.215l-0.112,-0.214l-0.114,-0.214l-0.115,-0.212l-0.116,-0.212l-0.117,-0.212l-0.119,-0.21l-0.119,-0.21l-0.122,-0.209l-0.122,-0.208l-0.123,-0.208l-0.125,-0.206l-0.126,-0.206l-0.127,-0.205l-0.129,-0.204l-0.129,-0.204l-0.131,-0.202l-0.132,-0.202l-0.133,-0.201l-0.134,-0.2l-0.136,-0.199l-0.137,-0.199l-0.137,-0.197l-0.139,-0.197l-0.141,-0.196l-0.141,-0.195l-0.143,-0.194l-0.143,-0.193l-0.145,-0.192l-0.146,-0.192l-0.147,-0.19l-0.148,-0.19l-0.149,-0.189l-0.151,-0.187l-0.151,-0.187l-0.153,-0.186l-0.153,-0.185l-0.155,-0.184l-0.156,-0.184l-0.157,-0.182l-0.158,-0.181l-0.159,-0.18l-0.16,-0.18l-0.161,-0.178l-0.163,-0.178l-0.163,-0.176l-0.164,-0.176l-0.166,-0.174l-0.166,-0.174l-0.168,-0.172l-0.168,-0.172l-0.17,-0.17l-0.17,-0.17l-0.172,-0.168l-0.172,-0.168l-0.174,-0.166l-0.174,-0.166l-0.176,-0.164l-0.176,-0.163l-0.178,-0.163l-0.178,-0.161l-0.18,-0.16l-0.18,-0.159l-0.181,-0.158l-0.182,-0.157l-0.184,-0.156l-0.184,-0.155l-0.185,-0.153l-0.186,-0.153l-0.187,-0.151l-0.188,-0.151l-0.188,-0.149l-0.19,-0.148l-0.19,-0.147l-0.192,-0.146l-0.192,-0.145l-0.193,-0.143l-0.194,-0.143l-0.195,-0.141l-0.196,-0.14l-0.197,-0.139l-0.197,-0.138l-0.199,-0.137l-0.199,-0.136l-0.2,-0.134l-0.201,-0.133l-0.202,-0.132l-0.202,-0.131l-0.204,-0.129l-0.204,-0.129l-0.205,-0.127l-0.206,-0.126l-0.206,-0.125l-0.208,-0.123l-0.208,-0.123l-0.209,-0.121l-0.21,-0.119l-0.21,-0.119l-0.212,-0.117l-0.212,-0.116l-0.213,-0.115l-0.213,-0.114l-0.214,-0.112l-0.215,-0.111l-0.216,-0.11l-0.217,-0.108l-0.217,-0.108l-0.218,-0.106l-0.219,-0.104l-0.219,-0.104l-0.22,-0.102l-0.221,-0.1l-0.222,-0.1l-0.222,-0.098l-0.223,-0.097l-0.223,-0.095l-0.225,-0.094l-0.225,-0.093l-0.225,-0.091l-0.227,-0.091l-0.227,-0.088l-0.227,-0.088l-0.229,-0.086l-0.228,-0.084l-0.23,-0.084l-0.23,-0.082l-0.231,-0.08l-0.232,-0.08l-0.232,-0.077l-0.232,-0.077l-0.234,-0.075l-0.234,-0.073l-0.234,-0.073l-0.236,-0.071l-0.235,-0.069l-0.237,-0.068l-0.237,-0.067l-0.237,-0.065l-0.239,-0.063l-0.238,-0.063l-0.24,-0.061l-0.24,-0.059l-0.24,-0.058l-0.241,-0.056l-0.242,-0.055l-0.242,-0.054l-0.243,-0.052l-0.243,-0.051l-0.244,-0.049l-0.245,-0.048l-0.245,-0.046l-0.245,-0.045l-0.246,-0.043l-0.247,-0.041l-0.247,-0.041l-0.248,-0.038l-0.248,-0.038l-0.249,-0.035l-0.249,-0.034l-0.25,-0.033l-0.25,-0.031l-0.251,-0.03l-0.252,-0.027l-0.251,-0.027l-0.253,-0.025l-0.253,-0.023l-0.253,-0.022l-0.254,-0.02l-0.254,-0.019l-0.255,-0.016l-0.256,-0.016l-0.256,-0.014l-0.256,-0.012l-0.257,-0.01l-0.257,-0.009l-0.258,-0.008l-0.258,-0.006l-0.259,-0.004l-0.259,-0.002l-0.26,-0.001l-0.26,0.001Z" style="fill:#bababa;"/></g><path d="M53.168,23.303c0,-3.066 -2.489,-5.556 -5.555,-5.556c-2.453,0 -4.445,1.992 -4.445,4.445l0,35.555l10,0l0,-34.444Z" style="fill:#bababa;"/><path d="M72.613,57.911c3.066,0 5.555,-2.49 5.555,-5.556c0,-2.453 -1.991,-4.444 -4.444,-4.444l-30.556,0l0,10l29.445,0Z" style="fill:#bababa;"/></svg>