<?xml version="1.0" standalone="no"?><!DOCTYPE svg PUBLIC "-//W3C//DTD SVG 1.1//EN" "http://www.w3.org/Graphics/SVG/1.1/DTD/svg11.dtd"><svg width="100%" height="100%" viewBox="0 0 26 49" version="1.1" xmlns="http://www.w3.org/2000/svg" xmlns:xlink="http://www.w3.org/1999/xlink" xml:space="preserve" style="fill-rule:evenodd;clip-rule:evenodd;stroke-linejoin:round;stroke-miterlimit:1.41421;"><path d="M21.451,17.399c-2.095,0 -3.794,1.7 -3.794,3.796c0,2.095 1.699,3.794 3.794,3.794c2.096,0 3.795,-1.699 3.795,-3.794c0,-2.096 -1.699,-3.796 -3.795,-3.796M12.623,26.104c-2.096,0 -3.794,1.698 -3.794,3.794c0,2.096 1.698,3.795 3.794,3.795c2.096,0 3.793,-1.699 3.793,-3.795c0,-2.096 -1.697,-3.794 -3.793,-3.794M12.623,17.4c-2.096,0 -3.794,1.699 -3.794,3.795c0,2.096 1.698,3.795 3.794,3.795c2.096,0 3.793,-1.699 3.793,-3.795c0,-2.096 -1.697,-3.795 -3.793,-3.795M21.451,8.653c-2.095,0 -3.794,1.699 -3.794,3.793c0,2.097 1.699,3.795 3.794,3.795c2.096,0 3.795,-1.698 3.795,-3.795c0,-2.094 -1.699,-3.793 -3.795,-3.793M12.623,8.653c-2.096,0 -3.794,1.699 -3.794,3.793c0,2.097 1.698,3.795 3.794,3.795c2.096,0 3.793,-1.698 3.793,-3.795c0,-2.094 -1.697,-3.793 -3.793,-3.793M21.451,7.589c2.096,0 3.795,-1.699 3.795,-3.795c0,-2.094 -1.699,-3.794 -3.795,-3.794c-2.095,0 -3.794,1.7 -3.794,3.794c0,2.096 1.699,3.795 3.794,3.795M12.623,0c-2.096,0 -3.794,1.7 -3.794,3.794c0,2.096 1.698,3.795 3.794,3.795c2.096,0 3.793,-1.699 3.793,-3.795c0,-2.094 -1.697,-3.794 -3.793,-3.794M3.796,17.399c-2.097,0 -3.796,1.7 -3.796,3.796c0,2.095 1.699,3.794 3.796,3.794c2.095,0 3.794,-1.699 3.794,-3.794c0,-2.096 -1.699,-3.796 -3.794,-3.796M3.796,8.653c-2.097,0 -3.796,1.699 -3.796,3.793c0,2.097 1.699,3.795 3.796,3.795c2.095,0 3.794,-1.698 3.794,-3.795c0,-2.094 -1.699,-3.793 -3.794,-3.793M7.59,3.794c0,2.096 -1.699,3.795 -3.794,3.795c-2.097,0 -3.796,-1.699 -3.796,-3.795c0,-2.094 1.699,-3.794 3.796,-3.794c2.095,0 3.794,1.7 3.794,3.794" style="fill:#fff;fill-rule:nonzero;"/><path d="M10.575,40.286l0,5.535c0,0.371 0.302,0.673 0.673,0.673c0.371,0 0.674,-0.302 0.674,-0.673l0,-5.535c0,-0.372 -0.303,-0.673 -0.674,-0.673c-0.371,0 -0.673,0.301 -0.673,0.673" style="fill:#fff;fill-rule:nonzero;"/><path d="M5.238,44.057c0,-0.66 0.538,-1.198 1.198,-1.198c0.661,0 1.199,0.538 1.199,1.198c0,0.661 -0.538,1.199 -1.199,1.199c-0.66,0 -1.198,-0.538 -1.198,-1.199M7.645,41.989l-0.054,0.103l-0.09,-0.075c-0.314,-0.262 -0.711,-0.396 -1.18,-0.396c-1.342,0 -2.435,1.092 -2.435,2.436c0,1.344 1.093,2.437 2.435,2.437c0.469,0 0.866,-0.133 1.18,-0.396l0.09,-0.076l0.054,0.105c0.115,0.227 0.345,0.367 0.599,0.367c0.371,0 0.673,-0.302 0.673,-0.673l0,-3.527c0,-0.371 -0.302,-0.673 -0.673,-0.673c-0.254,0 -0.484,0.141 -0.599,0.368" style="fill:#fff;fill-rule:nonzero;"/><path d="M20.898,44.057c0,-0.66 0.538,-1.198 1.199,-1.198c0.66,0 1.198,0.538 1.198,1.198c0,0.661 -0.538,1.199 -1.198,1.199c-0.661,0 -1.199,-0.538 -1.199,-1.199M23.304,41.989l-0.052,0.103l-0.091,-0.075c-0.313,-0.262 -0.711,-0.396 -1.179,-0.396c-1.343,0 -2.437,1.092 -2.437,2.436c0,1.344 1.094,2.437 2.437,2.437c0.468,0 0.866,-0.133 1.179,-0.396l0.091,-0.076l0.052,0.105c0.117,0.227 0.347,0.367 0.601,0.367c0.37,0 0.672,-0.302 0.672,-0.673l0,-3.527c0,-0.371 -0.302,-0.673 -0.672,-0.673c-0.254,0 -0.484,0.141 -0.601,0.368" style="fill:#fff;fill-rule:nonzero;"/><path d="M14.869,44.057c0,-0.661 0.539,-1.198 1.2,-1.198c0.659,0 1.197,0.537 1.197,1.198c0,0.661 -0.538,1.199 -1.197,1.199c-0.661,0 -1.2,-0.538 -1.2,-1.199M15.002,42.016l-0.089,0.076l-0.054,-0.103c-0.115,-0.227 -0.345,-0.368 -0.599,-0.368c-0.372,0 -0.673,0.302 -0.673,0.673l0,5.567c0,0.371 0.301,0.673 0.673,0.673c0.371,0 0.673,-0.302 0.673,-0.673l0,-1.812l0.15,0.109c0.301,0.223 0.67,0.336 1.099,0.336c1.344,0 2.437,-1.093 2.437,-2.437c0,-1.344 -1.093,-2.436 -2.437,-2.436c-0.469,0 -0.866,0.133 -1.18,0.395" style="fill:#fff;fill-rule:nonzero;"/><path d="M2.789,41.71l-0.774,0l0,-1.425c0,-0.372 -0.302,-0.673 -0.674,-0.673c-0.371,0 -0.673,0.301 -0.673,0.673l0,5.535c0,0.371 0.302,0.673 0.673,0.673c0.372,0 0.674,-0.302 0.674,-0.673l0,-2.872l0.774,0c0.341,0 0.619,-0.278 0.619,-0.619c0,-0.341 -0.278,-0.619 -0.619,-0.619" style="fill:#fff;fill-rule:nonzero;"/></svg>